<?xml version="1.0" standalone="no"?>
<!DOCTYPE svg PUBLIC "-//W3C//DTD SVG 20010904//EN"
 "http://www.w3.org/TR/2001/REC-SVG-20010904/DTD/svg10.dtd">
<svg version="1.0" xmlns="http://www.w3.org/2000/svg"
 width="704.000000pt" height="704.000000pt" viewBox="0 0 704.000000 704.000000"
 preserveAspectRatio="xMidYMid meet">
<metadata>
Created by potrace 1.11, written by Peter Selinger 2001-2013
</metadata>
<g transform="translate(0.000000,704.000000) scale(0.100000,-0.100000)"
fill="#000000" stroke="none">
<path d="M2680 7000 l0 -40 -160 0 -160 0 0 -40 0 -40 -80 0 -80 0 0 -40 0
-40 -80 0 -80 0 0 -40 0 -40 -40 0 -40 0 0 -40 0 -40 -80 0 -80 0 0 -40 0 -40
-40 0 -40 0 0 -40 0 -40 -40 0 -40 0 0 -80 0 -80 -40 0 -40 0 0 -40 0 -40 -40
0 -40 0 0 -40 0 -40 -40 0 -40 0 0 -80 0 -80 -40 0 -40 0 0 -80 0 -80 -40 0
-40 0 0 -120 0 -120 -40 0 -40 0 0 -160 0 -160 -40 0 -40 0 0 -480 0 -480 40
0 40 0 0 -120 0 -120 40 0 40 0 0 -80 0 -80 40 0 40 0 0 -40 0 -40 40 0 40 0
0 -80 0 -80 40 0 40 0 0 -80 0 -80 40 0 40 0 0 -40 0 -40 40 0 40 0 0 -80 0
-80 40 0 40 0 0 -40 0 -40 40 0 40 0 0 -40 0 -40 40 0 40 0 0 -40 0 -40 40 0
40 0 0 -40 0 -40 40 0 40 0 0 -80 0 -80 40 0 40 0 0 -80 0 -80 40 0 40 0 0
-80 0 -80 40 0 40 0 0 -920 0 -920 40 0 40 0 0 -40 0 -40 40 0 40 0 0 -40 0
-40 40 0 40 0 0 -40 0 -40 40 0 40 0 0 -40 0 -40 40 0 40 0 0 -40 0 -40 40 0
40 0 0 -40 0 -40 80 0 80 0 0 -40 0 -40 160 0 160 0 0 -40 0 -40 280 0 280 0
0 40 0 40 160 0 160 0 0 40 0 40 80 0 80 0 0 40 0 40 40 0 40 0 0 40 0 40 40
0 40 0 0 40 0 40 40 0 40 0 0 40 0 40 40 0 40 0 0 40 0 40 40 0 40 0 0 40 0
40 40 0 40 0 0 920 0 920 40 0 40 0 0 80 0 80 40 0 40 0 0 80 0 80 40 0 40 0
0 80 0 80 40 0 40 0 0 40 0 40 40 0 40 0 0 40 0 40 40 0 40 0 0 40 0 40 40 0
40 0 0 40 0 40 40 0 40 0 0 80 0 80 40 0 40 0 0 40 0 40 40 0 40 0 0 80 0 80
40 0 40 0 0 80 0 80 40 0 40 0 0 40 0 40 40 0 40 0 0 80 0 80 40 0 40 0 0 120
0 120 40 0 40 0 0 480 0 480 -40 0 -40 0 0 160 0 160 -160 0 -160 0 0 40 0 40
-240 0 -240 0 0 -40 0 -40 -120 0 -120 0 0 40 0 40 -40 0 -40 0 0 40 0 40 -40
0 -40 0 0 40 0 40 -40 0 -40 0 0 40 0 40 -40 0 -40 0 0 40 0 40 -40 0 -40 0 0
40 0 40 -320 0 -320 0 0 40 0 40 -40 0 -40 0 0 40 0 40 -40 0 -40 0 0 200 0
200 -40 0 -40 0 0 40 0 40 -40 0 -40 0 0 40 0 40 -40 0 -40 0 0 120 0 120
-360 0 -360 0 0 -40z m240 -320 l0 -280 40 0 40 0 0 -40 0 -40 40 0 40 0 0
-80 0 -80 80 0 80 0 0 -40 0 -40 40 0 40 0 0 -40 0 -40 40 0 40 0 0 -120 0
-120 80 0 80 0 0 -80 0 -80 40 0 40 0 0 -80 0 -80 40 0 40 0 0 -80 0 -80 40 0
40 0 0 -40 0 -40 160 0 160 0 0 40 0 40 40 0 40 0 0 40 0 40 80 0 80 0 0 -40
0 -40 40 0 40 0 0 -40 0 -40 80 0 80 0 0 -40 0 -40 40 0 40 0 0 -40 0 -40 80
0 80 0 0 -40 0 -40 120 0 120 0 0 40 0 40 40 0 40 0 0 40 0 40 40 0 40 0 0 40
c0 39 1 40 35 40 34 0 35 1 35 40 l0 40 85 0 85 0 0 40 0 40 120 0 120 0 0 80
0 80 40 0 40 0 0 -160 0 -160 40 0 40 0 0 -400 0 -400 -40 0 -40 0 0 -80 0
-80 -40 0 -40 0 0 -80 0 -80 -40 0 -40 0 0 -80 0 -80 -40 0 -40 0 0 -80 0 -80
-40 0 -40 0 0 -80 0 -80 -40 0 -40 0 0 -40 0 -40 -40 0 -40 0 0 -80 0 -80 -40
0 -40 0 0 -40 0 -40 -40 0 -40 0 0 -40 0 -40 -40 0 -40 0 0 -40 0 -40 -40 0
-40 0 0 -40 0 -40 -40 0 -40 0 0 -80 0 -80 -40 0 -40 0 0 -80 0 -80 -40 0 -40
0 0 -80 0 -80 -40 0 -40 0 0 -400 0 -400 -120 0 -120 0 0 -40 0 -40 -200 0
-200 0 0 -40 0 -40 -520 0 -520 0 0 40 0 40 -200 0 -200 0 0 40 0 40 -120 0
-120 0 0 400 0 400 -40 0 -40 0 0 80 0 80 -40 0 -40 0 0 80 0 80 -40 0 -40 0
0 80 0 80 -40 0 -40 0 0 40 0 40 -40 0 -40 0 0 40 0 40 -40 0 -40 0 0 40 0 40
-40 0 -40 0 0 40 0 40 -40 0 -40 0 0 80 0 80 -40 0 -40 0 0 40 0 40 -40 0 -40
0 0 80 0 80 -40 0 -40 0 0 80 0 80 -40 0 -40 0 0 80 0 80 -40 0 -40 0 0 80 0
80 -40 0 -40 0 0 80 0 80 -40 0 -40 0 0 400 0 400 40 0 40 0 0 160 0 160 40 0
40 0 0 80 0 80 40 0 40 0 0 120 0 120 40 0 40 0 0 40 0 40 40 0 40 0 0 80 0
80 40 0 40 0 0 40 0 40 40 0 40 0 0 80 0 80 40 0 40 0 0 40 0 40 80 0 80 0 0
40 0 40 40 0 40 0 0 40 0 40 40 0 40 0 0 40 0 40 80 0 80 0 0 40 0 40 120 0
120 0 0 40 0 40 120 0 120 0 0 40 0 40 80 0 80 0 0 -280z m400 160 l0 -120 40
0 40 0 0 -40 0 -40 40 0 40 0 0 -40 0 -40 40 0 40 0 0 -200 0 -200 40 0 40 0
0 -40 0 -40 40 0 40 0 0 -40 0 -40 320 0 320 0 0 -40 0 -40 40 0 40 0 0 -40 0
-40 40 0 40 0 0 -40 0 -40 40 0 40 0 0 -40 0 -40 40 0 40 0 0 -40 0 -40 40 0
40 0 0 -40 0 -40 200 0 200 0 0 40 0 40 160 0 160 0 0 -40 0 -40 80 0 80 0 0
-40 0 -40 -120 0 -120 0 0 -40 0 -40 -80 0 -80 0 0 -40 0 -40 -40 0 -40 0 0
-40 0 -40 -40 0 -40 0 0 -40 0 -40 -40 0 -40 0 0 -40 0 -40 -40 0 -40 0 0 40
0 40 -80 0 -80 0 0 40 0 40 -40 0 -40 0 0 40 0 40 -80 0 -80 0 0 40 0 40 -40
0 -40 0 0 40 0 40 -160 0 -160 0 0 -40 0 -40 -40 0 -40 0 0 -40 0 -40 -80 0
-80 0 0 40 0 40 -40 0 -40 0 0 80 0 80 -40 0 -40 0 0 80 0 80 -40 0 -40 0 0
80 0 80 -80 0 -80 0 0 120 0 120 -40 0 -40 0 0 40 0 40 -40 0 -40 0 0 40 0 40
-80 0 -80 0 0 80 0 80 -40 0 -40 0 0 40 0 40 -40 0 -40 0 0 240 0 240 160 0
160 0 0 -120z"/>
</g>
</svg>
